<svg width="209" height="41" viewBox="0 0 209 41" fill="none" xmlns="http://www.w3.org/2000/svg">
<path d="M202.399 18.184C201.847 19.888 200.719 22.672 199.015 26.536C202.399 23.728 205.543 20.008 208.447 15.376V16.348C205.471 21.196 202.171 25 198.547 27.76C196.315 33.784 194.743 37.36 193.831 38.488C192.919 39.616 191.863 40.324 190.663 40.612C189.487 40.9 188.179 40.816 186.739 40.36C185.299 39.928 184.435 38.968 184.147 37.48C183.835 35.992 184.063 34.684 184.831 33.556C185.575 32.428 186.775 31.468 188.431 30.676C190.087 29.884 192.751 28.9 196.423 27.724L197.611 24.844C196.411 25.852 194.911 26.404 193.111 26.5C191.335 26.572 190.051 26.212 189.259 25.42C188.491 24.604 188.203 23.212 188.395 21.244C188.587 19.276 189.439 17.608 190.951 16.24C192.463 14.848 194.215 14.008 196.207 13.72C198.199 13.408 199.867 13.648 201.211 14.44C202.579 15.232 202.975 16.48 202.399 18.184ZM195.343 15.52C193.999 15.952 192.883 16.792 191.995 18.04C191.107 19.288 190.603 20.62 190.483 22.036C190.387 23.428 190.711 24.304 191.455 24.664C192.223 25.024 193.027 25.108 193.867 24.916C194.707 24.724 195.547 24.376 196.387 23.872C197.227 23.368 197.947 22.66 198.547 21.748C199.147 20.836 199.711 19.648 200.239 18.184C200.767 16.696 200.419 15.772 199.195 15.412C197.995 15.028 196.711 15.064 195.343 15.52ZM190.051 38.956C190.963 38.62 191.767 37.912 192.463 36.832C193.159 35.776 194.347 33.064 196.027 28.696C192.619 29.704 190.123 30.76 188.539 31.864C186.979 32.968 186.175 34.276 186.127 35.788C186.055 37.3 186.463 38.284 187.351 38.74C188.239 39.22 189.139 39.292 190.051 38.956Z" fill="black"/>
<path d="M179.825 13.72C183.761 13.672 185.837 14.44 186.053 16.024C186.101 17.104 185.057 20.272 182.921 25.528C182.657 26.152 182.873 26.392 183.569 26.248C184.265 26.104 185.285 25.348 186.629 23.98C187.973 22.588 189.953 19.696 192.569 15.304V16.312C190.673 19.624 189.113 22.048 187.889 23.584C186.689 25.12 185.561 26.2 184.505 26.824C183.449 27.424 182.465 27.628 181.553 27.436C180.641 27.244 180.389 26.62 180.797 25.564C181.757 23.092 182.705 20.452 183.641 17.644C184.025 16.372 183.437 15.592 181.877 15.304C180.317 14.992 178.949 15.136 177.773 15.736C176.621 16.336 175.673 17.5 174.929 19.228L172.337 25.636C171.953 26.788 171.365 27.34 170.573 27.292C169.805 27.244 169.661 26.668 170.141 25.564L172.913 18.76C173.609 17.032 173.873 15.928 173.705 15.448C173.537 14.944 173.201 15.04 172.697 15.736C172.193 16.432 171.869 16.648 171.725 16.384C171.605 16.096 171.869 15.568 172.517 14.8C173.165 14.008 173.801 13.6 174.425 13.576C175.073 13.552 175.421 14.056 175.469 15.088C176.789 14.224 178.241 13.768 179.825 13.72Z" fill="black"/>
<path d="M167.869 16.276C168.373 17.308 168.529 18.412 168.337 19.588C168.145 20.74 167.833 21.82 167.401 22.828C166.969 23.812 166.273 24.856 165.313 25.96C166.321 25.672 167.485 24.832 168.805 23.44C170.125 22.024 172.069 19.3 174.637 15.268V16.312C172.453 19.984 170.629 22.576 169.165 24.088C167.701 25.576 166.249 26.572 164.809 27.076C163.369 27.556 162.025 27.82 160.777 27.868C159.553 27.892 158.449 27.76 157.465 27.472C156.481 27.184 155.713 26.764 155.161 26.212C154.633 25.66 154.285 25.108 154.117 24.556C153.949 24.004 153.889 23.296 153.937 22.432C153.985 21.568 154.153 20.692 154.441 19.804C154.729 18.892 155.029 18.148 155.341 17.572C155.677 16.972 156.193 16.348 156.889 15.7C157.585 15.052 158.437 14.572 159.445 14.26C160.453 13.924 161.545 13.768 162.721 13.792C163.897 13.792 164.917 13.948 165.781 14.26C166.669 14.572 167.365 15.244 167.869 16.276ZM156.277 21.064C156.085 22.168 156.049 23.104 156.169 23.872C156.313 24.64 156.709 25.252 157.357 25.708C158.029 26.164 158.773 26.404 159.589 26.428C160.429 26.452 161.233 26.296 162.001 25.96C162.769 25.624 163.417 25.108 163.945 24.412C164.473 23.716 164.965 22.9 165.421 21.964C165.901 21.004 166.201 19.984 166.321 18.904C166.441 17.8 166.153 16.9 165.457 16.204C164.785 15.508 163.873 15.172 162.721 15.196C161.569 15.22 160.573 15.46 159.733 15.916C158.893 16.348 158.161 17.032 157.537 17.968C156.913 18.904 156.493 19.936 156.277 21.064Z" fill="black"/>
<path d="M153.287 0.255999C154.223 0.447999 154.907 0.783999 155.339 1.264C155.771 1.72 155.939 2.212 155.843 2.74C155.747 3.244 155.495 3.7 155.087 4.108C154.703 4.492 154.139 5.044 153.395 5.764C152.651 6.46 150.335 8.812 146.447 12.82C149.111 14.332 150.779 15.916 151.451 17.572C152.123 19.228 152.243 20.8 151.811 22.288C151.403 23.776 150.695 25 149.687 25.96C148.703 26.896 147.635 27.532 146.483 27.868C145.355 28.204 143.951 28.264 142.271 28.048C140.591 27.808 139.175 27.304 138.023 26.536C136.895 25.744 136.175 24.592 135.863 23.08C135.575 21.544 135.755 20.164 136.403 18.94C137.075 17.692 137.555 17.152 137.843 17.32C138.131 17.464 138.119 17.848 137.807 18.472C137.495 19.096 137.339 19.912 137.339 20.92C137.339 21.928 137.543 22.852 137.951 23.692C138.383 24.508 138.959 25.12 139.679 25.528C140.423 25.936 141.347 26.236 142.451 26.428C143.555 26.596 144.635 26.5 145.691 26.14C146.747 25.78 147.623 25.204 148.319 24.412C149.015 23.62 149.507 22.672 149.795 21.568C150.107 20.464 149.987 19.276 149.435 18.004C148.907 16.732 147.539 15.436 145.331 14.116C142.307 17.212 138.803 21.124 134.819 25.852V24.736C138.323 20.656 141.611 16.96 144.683 13.648C143.051 12.616 142.055 11.62 141.695 10.66C141.335 9.7 141.215 8.584 141.335 7.312C141.479 6.016 142.103 4.72 143.207 3.424C144.311 2.104 145.523 1.204 146.843 0.723999C148.163 0.244 149.339 0.00399992 150.371 0.00399992C151.403 -0.0199998 152.375 0.0639999 153.287 0.255999ZM143.495 8.896C143.663 10.264 144.443 11.428 145.835 12.388C148.619 9.532 150.683 7.444 152.027 6.124C153.395 4.804 154.211 3.916 154.475 3.46C154.739 2.98 154.451 2.548 153.611 2.164C152.795 1.78 151.799 1.6 150.623 1.624C149.447 1.648 148.295 1.96 147.167 2.56C146.039 3.136 145.103 4 144.359 5.152C143.615 6.28 143.327 7.528 143.495 8.896Z" fill="black"/>
<path d="M113.316 17.788C115.692 15.268 117.96 13.768 120.12 13.288C122.28 12.808 123.492 12.952 123.756 13.72C123.876 14.248 123.36 14.884 122.208 15.628L119.868 16.96L114.036 20.308L118.968 24.592C120.384 25.888 121.836 25.936 123.324 24.736C124.836 23.536 127.188 20.38 130.38 15.268V16.204C127.116 21.964 124.272 25.54 121.848 26.932C121.248 27.244 120.648 27.34 120.048 27.22C119.448 27.076 118.86 26.764 118.284 26.284L112.128 20.992L110.076 26.068C109.716 26.956 109.224 27.34 108.6 27.22C107.976 27.076 107.772 26.644 107.988 25.924L116.988 2.84803C117.54 1.40803 118.188 0.604033 118.932 0.436034C119.7 0.244033 120.192 0.652034 120.408 1.66003C120.648 2.64403 120.24 4.54003 119.184 7.34803C118.152 10.156 116.52 12.844 114.288 15.412L113.316 17.788ZM114.936 13.648C116.544 11.632 117.756 9.53203 118.572 7.34803C119.412 5.14003 119.844 3.44803 119.868 2.27203C119.892 1.07203 119.352 2.00803 118.248 5.08003L114.936 13.648ZM121.308 14.332C122.124 13.852 122.028 13.66 121.02 13.756C120.012 13.828 119.088 14.092 118.248 14.548C117.408 14.98 116.568 15.52 115.728 16.168C114.912 16.816 113.928 17.776 112.776 19.048L121.308 14.332Z" fill="black"/>
<path d="M111.572 0.220038C112.34 0.220038 112.472 0.868039 111.968 2.16404C110.72 5.62004 109.664 8.50004 108.8 10.804C107.96 13.084 106.676 16.12 104.948 19.912C103.244 23.704 101.696 26.104 100.304 27.112C98.9121 28.096 97.5681 28.612 96.2721 28.66C95.0001 28.684 93.8721 28.516 92.8881 28.156C91.9281 27.796 91.1601 27.244 90.5841 26.5C90.0321 25.732 89.7201 24.808 89.6481 23.728C89.5761 22.624 89.6481 21.328 89.8641 19.84C90.1041 18.352 90.5361 16.6 91.1601 14.584C91.8081 12.544 92.4321 10.648 93.0321 8.89604C93.6321 7.12004 94.5561 4.64804 95.8041 1.48004C96.1641 0.520039 96.7161 0.0400391 97.4601 0.0400391C98.2041 0.0400391 98.4561 0.460039 98.2161 1.30004C97.4241 3.26804 96.5841 5.40404 95.6961 7.70804C94.8321 10.012 94.0641 12.256 93.3921 14.44C92.7441 16.624 92.2761 18.652 91.9881 20.524C91.7001 22.372 91.7001 23.74 91.9881 24.628C92.3001 25.516 92.7921 26.128 93.4641 26.464C94.1601 26.8 94.9161 26.992 95.7321 27.04C96.5721 27.064 97.3761 26.848 98.1441 26.392C98.9361 25.912 99.6801 25.144 100.376 24.088C101.072 23.032 101.792 21.76 102.536 20.272C103.304 18.76 104.096 17.008 104.912 15.016C105.752 13.024 107.336 8.90804 109.664 2.66804C110.168 1.03604 110.804 0.220038 111.572 0.220038Z" fill="black"/>
<path d="M89.0903 18.184C88.5383 19.888 87.4103 22.672 85.7063 26.536C89.0903 23.728 92.2343 20.008 95.1383 15.376V16.348C92.1623 21.196 88.8623 25 85.2383 27.76C83.0063 33.784 81.4343 37.36 80.5223 38.488C79.6103 39.616 78.5543 40.324 77.3543 40.612C76.1783 40.9 74.8703 40.816 73.4303 40.36C71.9903 39.928 71.1263 38.968 70.8383 37.48C70.5263 35.992 70.7543 34.684 71.5223 33.556C72.2663 32.428 73.4663 31.468 75.1223 30.676C76.7783 29.884 79.4423 28.9 83.1143 27.724L84.3023 24.844C83.1023 25.852 81.6023 26.404 79.8023 26.5C78.0263 26.572 76.7423 26.212 75.9503 25.42C75.1823 24.604 74.8943 23.212 75.0863 21.244C75.2783 19.276 76.1303 17.608 77.6423 16.24C79.1543 14.848 80.9063 14.008 82.8983 13.72C84.8903 13.408 86.5583 13.648 87.9023 14.44C89.2703 15.232 89.6663 16.48 89.0903 18.184ZM82.0343 15.52C80.6903 15.952 79.5743 16.792 78.6863 18.04C77.7983 19.288 77.2943 20.62 77.1743 22.036C77.0783 23.428 77.4023 24.304 78.1463 24.664C78.9143 25.024 79.7183 25.108 80.5583 24.916C81.3983 24.724 82.2383 24.376 83.0783 23.872C83.9183 23.368 84.6383 22.66 85.2383 21.748C85.8383 20.836 86.4023 19.648 86.9303 18.184C87.4583 16.696 87.1103 15.772 85.8863 15.412C84.6863 15.028 83.4023 15.064 82.0343 15.52ZM76.7423 38.956C77.6543 38.62 78.4583 37.912 79.1543 36.832C79.8503 35.776 81.0383 33.064 82.7183 28.696C79.3103 29.704 76.8143 30.76 75.2303 31.864C73.6703 32.968 72.8663 34.276 72.8183 35.788C72.7463 37.3 73.1543 38.284 74.0423 38.74C74.9303 39.22 75.8303 39.292 76.7423 38.956Z" fill="black"/>
<path d="M66.5166 13.72C70.4526 13.672 72.5286 14.44 72.7446 16.024C72.7926 17.104 71.7486 20.272 69.6126 25.528C69.3486 26.152 69.5646 26.392 70.2606 26.248C70.9566 26.104 71.9766 25.348 73.3206 23.98C74.6646 22.588 76.6446 19.696 79.2606 15.304V16.312C77.3646 19.624 75.8046 22.048 74.5806 23.584C73.3806 25.12 72.2526 26.2 71.1966 26.824C70.1406 27.424 69.1566 27.628 68.2446 27.436C67.3326 27.244 67.0806 26.62 67.4886 25.564C68.4486 23.092 69.3966 20.452 70.3326 17.644C70.7166 16.372 70.1286 15.592 68.5686 15.304C67.0086 14.992 65.6406 15.136 64.4646 15.736C63.3126 16.336 62.3646 17.5 61.6206 19.228L59.0286 25.636C58.6446 26.788 58.0566 27.34 57.2646 27.292C56.4966 27.244 56.3526 26.668 56.8326 25.564L59.6046 18.76C60.3006 17.032 60.5646 15.928 60.3966 15.448C60.2286 14.944 59.8926 15.04 59.3886 15.736C58.8846 16.432 58.5606 16.648 58.4166 16.384C58.2966 16.096 58.5606 15.568 59.2086 14.8C59.8566 14.008 60.4926 13.6 61.1166 13.576C61.7646 13.552 62.1126 14.056 62.1606 15.088C63.4806 14.224 64.9326 13.768 66.5166 13.72Z" fill="black"/>
<path d="M51.9996 15.7C52.6716 14.572 53.4516 13.996 54.3396 13.972C55.2276 13.948 55.4676 14.428 55.0596 15.412C52.6596 21.82 51.4116 25.348 51.3156 25.996C51.2196 26.62 51.6276 26.788 52.5396 26.5C53.4756 26.188 54.6276 25.228 55.9956 23.62C57.3636 21.988 59.2116 19.228 61.5396 15.34V16.276C59.4036 19.996 57.5916 22.732 56.1036 24.484C54.6396 26.236 53.3796 27.268 52.3236 27.58C51.2676 27.892 50.4516 27.892 49.8756 27.58C49.3236 27.268 49.2276 26.548 49.5876 25.42C49.9476 24.292 50.7036 22.156 51.8556 19.012C50.3436 21.604 49.0836 23.5 48.0756 24.7C47.0916 25.876 46.0836 26.692 45.0516 27.148C44.0196 27.58 42.9636 27.736 41.8836 27.616C40.8276 27.472 40.0956 26.968 39.6876 26.104C39.2796 25.24 39.4716 23.8 40.2636 21.784L42.8196 14.8C43.1076 14.128 43.5996 13.852 44.2956 13.972C45.0156 14.092 45.2796 14.368 45.0876 14.8C44.9196 15.208 44.2956 16.744 43.2156 19.408C42.1596 22.048 41.6076 23.884 41.5596 24.916C41.5116 25.948 42.1236 26.368 43.3956 26.176C44.6676 25.984 46.2516 24.472 48.1476 21.64C50.0676 18.808 51.3516 16.828 51.9996 15.7Z" fill="black"/>
<path d="M36.947 16.276C37.451 17.308 37.607 18.412 37.415 19.588C37.223 20.74 36.911 21.82 36.479 22.828C36.047 23.812 35.351 24.856 34.391 25.96C35.399 25.672 36.563 24.832 37.883 23.44C39.203 22.024 41.147 19.3 43.715 15.268V16.312C41.531 19.984 39.707 22.576 38.243 24.088C36.779 25.576 35.327 26.572 33.887 27.076C32.447 27.556 31.103 27.82 29.855 27.868C28.631 27.892 27.527 27.76 26.543 27.472C25.559 27.184 24.791 26.764 24.239 26.212C23.711 25.66 23.363 25.108 23.195 24.556C23.027 24.004 22.967 23.296 23.015 22.432C23.063 21.568 23.231 20.692 23.519 19.804C23.807 18.892 24.107 18.148 24.419 17.572C24.755 16.972 25.271 16.348 25.967 15.7C26.663 15.052 27.515 14.572 28.523 14.26C29.531 13.924 30.623 13.768 31.799 13.792C32.975 13.792 33.995 13.948 34.859 14.26C35.747 14.572 36.443 15.244 36.947 16.276ZM25.355 21.064C25.163 22.168 25.127 23.104 25.247 23.872C25.391 24.64 25.787 25.252 26.435 25.708C27.107 26.164 27.851 26.404 28.667 26.428C29.507 26.452 30.311 26.296 31.079 25.96C31.847 25.624 32.495 25.108 33.023 24.412C33.551 23.716 34.043 22.9 34.499 21.964C34.979 21.004 35.279 19.984 35.399 18.904C35.519 17.8 35.231 16.9 34.535 16.204C33.863 15.508 32.951 15.172 31.799 15.196C30.647 15.22 29.651 15.46 28.811 15.916C27.971 16.348 27.239 17.032 26.615 17.968C25.991 18.904 25.571 19.936 25.355 21.064Z" fill="black"/>
<path d="M25.5271 0.292016C26.3911 0.268015 26.7631 0.736015 26.6431 1.69602C26.1631 3.49601 25.3231 6.11201 24.1231 9.54401C22.9231 12.976 21.0631 18.052 18.5431 24.772C19.5991 25.012 20.7151 25.492 21.8911 26.212V26.86C20.4031 26.212 19.1791 25.828 18.2191 25.708C16.8751 29.428 15.6151 32.584 14.4391 35.176C13.2631 37.768 11.9191 39.4 10.4071 40.072C8.91913 40.744 7.32313 40.912 5.61913 40.576C3.93913 40.264 2.57113 39.616 1.51513 38.632C0.45913 37.672 -0.0448696 36.244 0.00313044 34.348C0.0511304 32.452 0.78313 30.592 2.19913 28.768C3.63913 26.944 5.28313 25.708 7.13113 25.06C8.97913 24.412 10.6711 24.076 12.2071 24.052C13.7431 24.028 15.2191 24.124 16.6351 24.34C18.6271 19.012 20.1271 14.932 21.1351 12.1C22.1431 9.26802 23.1031 6.79602 24.0151 4.68402C21.9511 9.24402 20.1511 12.724 18.6151 15.124C17.0791 17.524 15.4951 18.964 13.8631 19.444C12.2551 19.924 10.6231 19.888 8.96713 19.336C7.31113 18.784 6.49513 17.356 6.51913 15.052C6.56713 12.724 7.27513 9.85602 8.64313 6.44802C10.0111 3.01602 10.4791 1.42002 10.0471 1.66002C9.63913 1.87602 9.20713 2.34401 8.75113 3.06401C8.31913 3.76002 7.99513 3.95202 7.77913 3.64002C7.58713 3.32802 7.89913 2.63201 8.71513 1.55201C9.53113 0.448014 10.4431 0.136015 11.4511 0.616016C12.4591 1.09602 12.6031 2.23602 11.8831 4.03602C11.1871 5.83601 10.4911 7.86401 9.79513 10.12C9.09913 12.376 8.77513 14.248 8.82313 15.736C8.89513 17.224 9.72313 18.028 11.3071 18.148C12.9151 18.244 14.4871 17.188 16.0231 14.98C17.5831 12.748 19.9951 8.38002 23.2591 1.87601C23.9071 0.820015 24.6631 0.292016 25.5271 0.292016ZM2.12713 34.384C2.12713 35.992 2.60713 37.108 3.56713 37.732C4.52713 38.38 5.54713 38.764 6.62713 38.884C7.73113 39.004 8.75113 38.824 9.68713 38.344C10.6231 37.888 11.5111 36.748 12.3511 34.924C13.2151 33.124 14.5231 29.944 16.2751 25.384C13.2031 24.808 10.5271 25 8.24713 25.96C5.96713 26.896 4.37113 28.144 3.45913 29.704C2.57113 31.24 2.12713 32.8 2.12713 34.384Z" fill="black"/>
</svg>
